<svg xmlns="http://www.w3.org/2000/svg" version="1.1" xmlns:xlink="http://www.w3.org/1999/xlink" xmlns:svgjs="http://svgjs.dev/svgjs" width="1000" height="625" viewBox="0 0 1000 625"><g transform="matrix(1,0,0,1,0,0)"><svg viewBox="0 0 512 320" data-background-color="#ffffff" preserveAspectRatio="xMidYMid meet" height="625" width="1000" xmlns="http://www.w3.org/2000/svg" xmlns:xlink="http://www.w3.org/1999/xlink"><g id="tight-bounds" transform="matrix(1,0,0,1,0,0)"><svg viewBox="0 0 512 320" height="320" width="512"><g><svg></svg></g><g><svg viewBox="0 0 512 320" height="320" width="512"><g><path xmlns="http://www.w3.org/2000/svg" d="M96 160c0-88.366 71.634-160 160-160 88.366 0 160 71.634 160 160 0 88.366-71.634 160-160 160-88.366 0-160-71.634-160-160zM256 297.266c75.81 0 137.266-61.456 137.266-137.266 0-75.81-61.456-137.266-137.266-137.266-75.81 0-137.266 61.456-137.266 137.266 0 75.81 61.456 137.266 137.266 137.266z" fill="#ff0000" fill-rule="nonzero" stroke="none" stroke-width="1" stroke-linecap="butt" stroke-linejoin="miter" stroke-miterlimit="10" stroke-dasharray="" stroke-dashoffset="0" font-family="none" font-weight="none" font-size="none" text-anchor="none" style="mix-blend-mode: normal" data-fill-palette-color="tertiary"></path></g><g transform="matrix(1,0,0,1,183.9579917695473,80)"><svg viewBox="0 0 144.0840164609054 160" height="160" width="144.0840164609054"><g><svg viewBox="0 0 144.0840164609054 160" height="160" width="144.0840164609054"><g><svg viewBox="0 0 144.0840164609054 160" height="160" width="144.0840164609054"><g id="textblocktransform"><svg viewBox="0 0 144.0840164609054 160" height="160" width="144.0840164609054" id="textblock"><g><svg viewBox="0 0 144.0840164609054 160" height="160" width="144.0840164609054"><path d="M143.747 34.317C143.069 17.709 141.139 13.092 141.139 13.092 135.212-4.014 127.815-0.327 121.17 2.131 109.438 2.23 97.753 5.884 86.048 7.844 61.48 8.143 36.702 3.227 12.256 15.351 9.959 19.071-2.382 16.081 0.408 36.443 1.14 44.913 3.809 54.313 3.728 62.085 4.093 63.447 4.601 60.325 4.818 62.285 5.577 67.566 6.816 65.075 7.832 68.197 6.417 76.534 7.433 83.476 8.401 90.751 6.694 92.644 4.507 91.747 3.524 98.025 3.423 102.576 2.874 101.712 2.271 101.513 1.831 101.38 0.944 101.878 1.093 103.306 1.601 108.189-0.581 111.012 0.788 115.796-0.154 120.977 1.438 125.461 1.221 131.075 1.194 132.204 1.343 133.167 1.58 133.433 2.63 134.861 1.099 137.652 1.262 140.674 12.032 161.334 23.717 147.052 34.751 156.551 37.616 149.908 35.462 158.91 36.607 157.515 37.501 155.887 38.151 162.63 39.161 158.81 39.317 157.714 39.079 155.123 39.635 155.621 39.926 155.887 40.184 155.821 40.224 154.293 40.285 152.001 39.75 153.429 39.608 152.233 41.145 146.188 40.766 160.571 42.209 159.973 42.141 158.212 41.721 155.688 42.581 156.02 43.435 153.496 43.462 151.403 44.221 157.083 44.248 158.312 44.383 159.175 44.6 159.773 46.971 153.595 49.328 161.966 51.814 159.175 53.338 156.12 54.801 160.836 56.346 159.674 56.888 158.744 57.436 157.083 57.958 159.873 64.345 160.471 71.153 157.98 77.209 159.973 93.391 156.252 110.684 161.501 127.747 156.585 131.771 154.691 135.95 152.001 139.872 149.842 139.872 149.842 143.049 143.929 143.049 117.357S143.726 94.106 143.828 72.947C143.93 51.788 144.404 50.925 143.726 34.317Z" opacity="1" fill="#ff0000" data-fill-palette-color="tertiary"></path><g transform="matrix(1,0,0,1,36.09600000000001,16.977777777777778)"><svg width="71.89201646090537" viewBox="3.049999952316284 -40.5 23.100000381469727 40.5" height="126.04444444444445" data-palette-color="#ffffff"><path d="M10.45 0L3.05 0 3.05-40.5 12.75-40.5Q16.85-40.5 19.68-39.53 22.5-38.55 23.98-36.2 25.45-33.85 25.45-29.8L25.45-29.8Q25.45-27.35 25-25.4 24.55-23.45 23.48-22.08 22.4-20.7 20.5-19.95L20.5-19.95 26.15 0 18.75 0 13.85-18.55 10.45-18.55 10.45 0ZM10.45-35.45L10.45-23.2 12.75-23.2Q14.9-23.2 16.18-23.83 17.45-24.45 18-25.83 18.55-27.2 18.55-29.35L18.55-29.35Q18.55-32.4 17.43-33.93 16.3-35.45 13.15-35.45L13.15-35.45 10.45-35.45Z" opacity="1" transform="matrix(1,0,0,1,0,0)" fill="#ffffff" class="undefined-text-0" data-fill-palette-color="quaternary" id="text-0"></path></svg></g></svg></g></svg></g></svg></g><g></g></svg></g></svg></g></svg></g><defs></defs></svg><rect width="512" height="320" fill="none" stroke="none" visibility="hidden"></rect></g></svg></g></svg>